<svg width="174" height="24" viewBox="0 0 174 24" fill="none" xmlns="http://www.w3.org/2000/svg">
<g opacity="0.5" clip-path="url(#clip0_5569_14659)">
<path d="M173.291 15.2959C172.521 12.3746 170.382 11.0764 168.411 10.0684C166.676 9.15623 164.174 8.08238 163.918 7.97266C163.305 7.71033 162.785 7.4959 162.197 7.00543C161.738 6.62183 161.169 6.13283 160.949 5.28928C160.902 5.10867 160.704 4.27042 161.116 3.42388C161.649 2.33055 162.826 1.99122 163.419 1.81998C165.779 1.13962 167.883 2.41612 168.242 2.64317C169.453 3.40908 170.214 4.50088 170.499 4.91886C170.743 5.27503 170.92 5.59132 171.04 5.82255C171.723 4.84357 172.406 3.86456 173.088 2.88554C170.557 0.765137 164.219 -1.58426 159.435 1.44506C157.529 2.55244 156.381 4.57059 156.621 6.75564C157.122 10.382 160.059 11.802 164.264 13.7078C166.017 14.4758 166.555 14.6253 167.375 15.312C167.898 15.7494 168.467 16.2375 168.808 17.0815C169.588 19.2583 168.775 21.5677 165.71 22.1783C161.36 23.1435 158.129 20.5185 156.742 18.153V22.2545C159.807 23.6675 163.147 24.3511 166.33 23.8209C168.202 23.5584 171.251 22.3749 172.645 19.968C173.864 17.8403 173.378 15.6612 173.291 15.2959Z" fill="white"/>
<path d="M103.383 0.816895H98.582V23.1787H103.383V0.816895Z" fill="white"/>
<path d="M12.8988 0.808594H0.494141V4.80177C0.494141 4.80177 3.94452 2.6443 8.91113 2.42422V23.1704H13.7122V2.42424C18.6789 2.64432 22.1292 4.80179 22.1292 4.80179V0.808594H12.8988Z" fill="white"/>
<path d="M40.7333 21.5731H30.931V11.7898H39.533V10.1926H30.931V2.40588H31.433C37.3615 2.40588 40.6633 4.20232 40.6633 4.20232V0.808594H26.1299V23.1704H40.7333L40.7333 21.5731Z" fill="white"/>
<path d="M127.786 21.7728V0.816575H126.186V19.5606L112.617 0.808594H107.073L108.417 2.6936V23.1704H110.017V4.93933L123.009 23.1704H126.186H127.786V21.7728Z" fill="white"/>
<path d="M90.488 0.816897L90.4883 0.816406H88.6398L88.6396 0.816897H88.5198H87.1755L87.907 2.08146L80.3759 15.1L72.1139 0.816406H66.5713L67.9149 3.13936V23.1782H69.5153V5.90608L77.6052 19.8918L78.5275 21.4871L81.3001 16.6973L88.5198 4.21858V23.1787H93.3209V11.4408V1.85712V0.816897H92.7188H90.488Z" fill="white"/>
<path d="M64.3383 23.1704C64.3383 23.1704 60.7095 15.9058 58.823 13.5483C58.2234 12.799 57.6729 12.2275 57.1495 11.7898H57.6367C58.1005 11.7898 58.5508 11.7324 58.9802 11.6237C59.1012 11.5934 59.2206 11.5592 59.3382 11.5209C61.5443 10.8076 63.1369 8.73871 63.1369 6.29827C63.1369 3.57114 61.1468 1.30958 58.5361 0.885277C58.2443 0.834809 57.9432 0.809575 57.6376 0.809575H49.9349V0.808594H45.1338V23.1704H49.9349V11.7898H51.1321C51.6817 11.8253 52.2107 11.9617 52.7356 12.4151C53.6299 13.1874 58.737 23.1704 58.737 23.1704H64.3383ZM49.9349 2.40596H54.0364C56.1897 2.40596 57.9363 4.14912 57.9363 6.29827C57.9363 8.44112 56.2036 10.1787 54.0622 10.1926H49.9349V2.40596Z" fill="white"/>
<path d="M151.521 14.9519C151.521 17.9573 150.318 20.0179 148.511 20.8539C146.314 21.8703 144.626 21.7115 143.416 21.6335C141.618 21.5176 139.504 20.8356 138.188 19.1425C136.954 17.5572 136.974 15.4708 136.988 14.8299V0.816895H132.187V14.8318C132.187 21.717 137.751 23.9414 142.861 24.0002C145.546 24.0002 147.349 23.7626 149.161 22.7699C152.695 20.8336 153.121 16.9611 153.121 14.8298V0.820898H151.521L151.521 14.9519Z" fill="white"/>
</g>
<defs>
<clipPath id="clip0_5569_14659">
<rect width="172.966" height="24" fill="white" transform="translate(0.494141)"/>
</clipPath>
</defs>
</svg>
