<svg width="57" height="48" viewBox="0 0 57 48" fill="none" xmlns="http://www.w3.org/2000/svg">
<path d="M55.8321 35.42L44.3321 18.42C43.9621 17.87 43.0521 17.87 42.6721 18.42L37.7821 25.65L29.0021 12.67V9.98H38.0021C38.3521 9.98 38.6721 9.8 38.8521 9.51C39.0321 9.22 39.0521 8.85 38.8921 8.54L37.1121 4.99L38.8921 1.44C39.0421 1.13 39.0321 0.76 38.8521 0.47C38.6721 0.18 38.3521 0 38.0021 0H28.0021C27.4521 0 27.0021 0.45 27.0021 1V12.69L18.2221 25.67L13.3321 18.44C12.9621 17.89 12.0521 17.89 11.6721 18.44L0.17209 35.42C-0.13791 35.88 -0.0179101 36.5 0.44209 36.81C0.61209 36.93 0.81209 36.98 1.00209 36.98C1.32209 36.98 1.64209 36.83 1.83209 36.54L12.5021 20.76L17.0121 27.43L4.17209 46.41C3.86209 46.87 3.98209 47.49 4.44209 47.8C4.90209 48.11 5.52209 47.99 5.83209 47.53L19.0621 27.97L28.0021 14.75L32.8421 21.9L31.0021 24.62L28.8321 21.41C28.7921 21.35 28.7321 21.31 28.6821 21.26C28.6421 21.22 28.6121 21.18 28.5721 21.14C28.4721 21.08 28.3721 21.04 28.2621 21.01C28.2421 21.01 28.2321 20.99 28.2121 20.99C28.1421 20.98 28.0821 20.99 28.0121 20.99C27.9521 20.99 27.8921 20.98 27.8321 20.99C27.8121 20.99 27.7921 21.01 27.7821 21.01C27.6721 21.04 27.5721 21.08 27.4721 21.14C27.4121 21.18 27.3821 21.23 27.3321 21.28C27.2921 21.32 27.2321 21.36 27.2021 21.41V21.43L23.1121 27.47C22.4121 28.51 22.0421 29.72 22.0421 30.97C22.0421 33.73 24.2821 35.97 27.0421 35.97H34.0421C35.6921 35.97 37.0421 37.32 37.0421 38.97C37.0421 40.62 35.6921 41.97 34.0421 41.97H18.0421C15.2821 41.97 13.0421 44.21 13.0421 46.97C13.0421 47.52 13.4921 47.97 14.0421 47.97C14.5921 47.97 15.0421 47.52 15.0421 46.97C15.0421 45.32 16.3921 43.97 18.0421 43.97H34.0421C36.8021 43.97 39.0421 41.73 39.0421 38.97C39.0421 36.21 36.8021 33.97 34.0421 33.97H27.0421C25.3921 33.97 24.0421 32.62 24.0421 30.97C24.0421 30.12 24.2921 29.29 24.7721 28.59L28.0421 23.76L30.2121 26.97C30.4021 27.24 30.7121 27.41 31.0421 27.41C31.3721 27.41 31.6821 27.25 31.8721 26.97L34.0921 23.69L36.9921 27.97L50.2221 47.53C50.4121 47.82 50.7321 47.97 51.0521 47.97C51.2421 47.97 51.4421 47.91 51.6121 47.8C52.0721 47.49 52.1921 46.87 51.8821 46.41L39.0421 27.43L43.5521 20.76L54.2221 36.54C54.4121 36.83 54.7321 36.98 55.0521 36.98C55.2421 36.98 55.4421 36.92 55.6121 36.81C56.0721 36.5 56.1921 35.88 55.8821 35.42H55.8321ZM35.1121 5.43L36.3921 7.98H29.0121V1.98H36.3921L35.1121 4.53C34.9721 4.81 34.9721 5.14 35.1121 5.42V5.43Z" fill="white"/>
<path d="M13.002 9.97998C14.222 9.97998 15.002 10.57 15.002 10.98C15.002 11.53 15.452 11.98 16.002 11.98C16.552 11.98 17.002 11.53 17.002 10.98C17.002 10.57 17.782 9.97998 19.002 9.97998C19.552 9.97998 20.002 9.52998 20.002 8.97998C20.002 8.42998 19.552 7.97998 19.002 7.97998C17.792 7.97998 16.732 8.35998 16.002 8.97998C15.272 8.36998 14.212 7.97998 13.002 7.97998C12.452 7.97998 12.002 8.42998 12.002 8.97998C12.002 9.52998 12.452 9.97998 13.002 9.97998Z" fill="white"/>
</svg>
