<svg width="60" height="48" viewBox="0 0 60 48" fill="none" xmlns="http://www.w3.org/2000/svg">
<path d="M51.6821 21.7239C50.6621 22.0739 49.7521 22.6139 48.9721 23.2739C48.9721 23.1839 48.9821 23.0939 48.9821 23.0039C48.9821 22.0439 48.9021 21.0939 48.7621 20.1639C50.9721 20.0939 53.0521 19.1439 54.4921 17.4739C56.2321 15.4639 56.7721 12.7739 55.9421 10.2739C55.8221 9.91394 55.5021 9.64394 55.1221 9.59394C52.4521 9.25393 49.8221 10.2339 48.0921 12.2239C47.5521 12.8439 47.1421 13.5339 46.8421 14.2639C46.4521 13.5239 46.0121 12.8039 45.5221 12.1139C47.0821 10.4039 47.7421 8.10393 47.2921 5.80393C46.7921 3.23393 44.9721 1.08393 42.4421 0.0739345C42.0921 -0.0660655 41.6921 0.00393447 41.4121 0.243934C39.3921 2.00393 38.4821 4.59393 38.9921 7.19393C39.4721 9.66393 41.1721 11.7339 43.5521 12.7939C45.8021 15.7739 46.9921 19.2939 46.9921 23.0039C46.9921 32.3739 39.3621 40.0039 29.9921 40.0039C20.6221 40.0039 12.9921 32.3739 12.9921 23.0039C12.9921 19.2939 14.1821 15.7739 16.4321 12.7939C18.8121 11.7339 20.5121 9.67393 20.9921 7.19393C21.5021 4.59393 20.5921 2.00393 18.5721 0.243934C18.2921 -0.00606553 17.8921 -0.0660655 17.5421 0.0739345C15.0021 1.09393 13.1921 3.23393 12.6921 5.80393C12.2421 8.10393 12.9021 10.3939 14.4621 12.1139C13.9721 12.8139 13.5321 13.5239 13.1421 14.2639C12.8421 13.5339 12.4321 12.8439 11.8921 12.2239C10.1621 10.2339 7.54206 9.25393 4.86206 9.59394C4.48206 9.64394 4.16206 9.90394 4.04206 10.2739C3.20206 12.7739 3.74206 15.4739 5.49206 17.4739C6.94207 19.1439 9.01206 20.0939 11.2221 20.1639C11.0821 21.0939 11.0021 22.0439 11.0021 23.0039C11.0021 23.0939 11.0121 23.1839 11.0121 23.2739C10.2321 22.6039 9.32207 22.0739 8.30206 21.7239C5.62206 20.7939 2.66206 21.2439 0.402065 22.9339C0.0820648 23.1739 -0.0579352 23.5739 0.0220648 23.9539C0.642065 26.6739 2.62206 28.8539 5.32206 29.7939C6.24206 30.1139 7.19207 30.2739 8.14207 30.2739C9.51206 30.2739 10.8721 29.9439 12.0921 29.2939C12.4421 30.2839 12.8521 31.2339 13.3521 32.1439C12.3521 31.9239 11.3121 31.8839 10.2621 32.0639C7.61206 32.5139 5.42206 34.2239 4.39206 36.6339C4.23206 37.0039 4.31206 37.4239 4.58206 37.7139C6.08206 39.3039 8.16207 40.1739 10.3321 40.1739C10.7821 40.1739 11.2421 40.1339 11.6921 40.0639C13.8621 39.6939 15.7121 38.4739 16.8721 36.7239C17.7021 37.5139 18.6021 38.2439 19.5621 38.8739C18.5921 39.1539 17.6821 39.6039 16.8721 40.2539C14.8721 41.8639 13.8721 44.3239 14.2221 46.8339C14.2721 47.2139 14.5421 47.5339 14.9121 47.6539C15.6721 47.8939 16.4621 48.0039 17.2321 48.0039C18.9621 48.0039 20.6621 47.4239 22.0321 46.3239C23.6321 45.0339 24.5721 43.2139 24.7121 41.2539C26.3821 41.7339 28.1421 42.0039 29.9621 42.0039C31.7821 42.0039 33.5421 41.7339 35.2121 41.2539C35.3621 43.2139 36.3021 45.0439 37.8921 46.3239C39.2621 47.4239 40.9621 48.0039 42.6921 48.0039C43.4621 48.0039 44.2521 47.8839 45.0121 47.6539C45.3821 47.5439 45.6521 47.2239 45.7021 46.8339C46.0521 44.3239 45.0521 41.8639 43.0521 40.2539C42.2521 39.6039 41.3321 39.1539 40.3621 38.8739C41.3221 38.2439 42.2221 37.5139 43.0521 36.7239C44.2221 38.4739 46.0721 39.6939 48.2321 40.0639C48.6821 40.1439 49.1421 40.1739 49.5921 40.1739C51.7621 40.1739 53.8421 39.2939 55.3421 37.7139C55.6121 37.4239 55.6921 37.0039 55.5321 36.6339C54.5021 34.2239 52.3121 32.5139 49.6621 32.0639C48.6221 31.8839 47.5721 31.9239 46.5721 32.1439C47.0721 31.2339 47.4821 30.2839 47.8321 29.2939C49.0521 29.9339 50.4121 30.2739 51.7821 30.2739C52.7221 30.2739 53.6821 30.1139 54.6021 29.7939C57.3021 28.8539 59.2821 26.6739 59.9021 23.9539C59.9921 23.5639 59.8421 23.1639 59.5221 22.9339C57.2521 21.2439 54.3021 20.7839 51.6221 21.7239H51.6821ZM49.6021 13.5439C50.7521 12.2239 52.4421 11.5039 54.2121 11.5339C54.5521 13.1739 54.1121 14.8639 52.9821 16.1639C51.8321 17.4839 50.1421 18.2139 48.3721 18.1739C48.0321 16.5339 48.4721 14.8439 49.6021 13.5439ZM6.98206 16.1639C5.85206 14.8639 5.41206 13.1739 5.75206 11.5339C7.51206 11.5039 9.21207 12.2239 10.3621 13.5439C11.4921 14.8439 11.9321 16.5339 11.5921 18.1739C9.83206 18.2139 8.13206 17.4839 6.98206 16.1639ZM5.96206 27.9039C4.14206 27.2739 2.75206 25.8939 2.14206 24.1539C3.78206 23.1739 5.79206 22.9639 7.62206 23.6039C9.44206 24.2339 10.8321 25.6139 11.4421 27.3539C9.80206 28.3339 7.79206 28.5439 5.96206 27.9039ZM14.6421 6.19393C14.9721 4.48393 16.1021 3.03393 17.7021 2.19393C18.8521 3.44393 19.3421 5.13393 19.0121 6.81393C18.6821 8.52393 17.5521 9.97394 15.9521 10.8139C14.8021 9.56394 14.3121 7.87393 14.6321 6.19393H14.6421ZM11.3521 38.0939C9.60207 38.3939 7.85207 37.9139 6.53206 36.8139C7.38206 35.3539 8.85207 34.3339 10.5921 34.0439C12.3421 33.7439 14.0921 34.2239 15.4121 35.3239C14.5621 36.7839 13.0921 37.8039 11.3521 38.0939ZM20.7921 44.7739C19.4921 45.8139 17.8021 46.2239 16.1621 45.9139C16.1521 44.3439 16.8521 42.8439 18.1321 41.8239C19.4321 40.7839 21.1221 40.3739 22.7621 40.6839C22.7721 42.2539 22.0621 43.7539 20.7921 44.7739ZM43.8021 45.9139C42.1621 46.2239 40.4721 45.8139 39.1721 44.7739C37.9021 43.7439 37.1921 42.2539 37.2021 40.6839C38.8421 40.3739 40.5321 40.7839 41.8321 41.8239C43.1121 42.8539 43.8121 44.3439 43.8021 45.9139ZM40.9421 6.82393C40.6121 5.14393 41.1021 3.46393 42.2521 2.20393C43.8521 3.03393 44.9721 4.49393 45.3121 6.20393C45.6421 7.88393 45.1521 9.56393 43.9921 10.8239C42.3921 9.99393 41.2721 8.53393 40.9321 6.82393H40.9421ZM49.3821 34.0439C51.1221 34.3339 52.5921 35.3539 53.4421 36.8139C52.1221 37.9139 50.3621 38.3939 48.6121 38.0939C46.8721 37.8039 45.4021 36.7839 44.5521 35.3239C45.8721 34.2239 47.6321 33.7439 49.3721 34.0439H49.3821ZM54.0021 27.9139C52.1621 28.5539 50.1621 28.3439 48.5221 27.3639C49.1321 25.6239 50.5221 24.2539 52.3421 23.6139C54.1821 22.9739 56.1821 23.1839 57.8221 24.1639C57.2121 25.9039 55.8221 27.2739 54.0021 27.9139Z" fill="white"/>
<path d="M19.1524 20.0439C18.7724 21.1639 19.0524 22.3839 19.8724 23.2239L22.5424 25.9739C22.6924 26.1339 22.7724 26.3639 22.7324 26.5839L22.1224 30.3639C21.9324 31.5639 22.4224 32.7339 23.4224 33.4339C24.4124 34.1239 25.6724 34.1939 26.7324 33.6039L29.6624 31.9739C29.8724 31.8539 30.1324 31.8539 30.3424 31.9739L33.2724 33.6039C33.7524 33.8739 34.2724 34.0039 34.7924 34.0039C35.4124 34.0039 36.0424 33.8139 36.5824 33.4339C37.5724 32.7339 38.0724 31.5639 37.8824 30.3639L37.2724 26.5839C37.2324 26.3639 37.3124 26.1339 37.4624 25.9739L40.1324 23.2239C40.9524 22.3739 41.2224 21.1539 40.8524 20.0439C40.4824 18.9339 39.5224 18.1239 38.3624 17.9439L34.8624 17.4039C34.6324 17.3639 34.4324 17.2239 34.3324 17.0039L32.8424 13.8139C32.3224 12.7039 31.2424 12.0039 30.0124 12.0039C28.7824 12.0039 27.7024 12.6939 27.1824 13.8139L25.6924 17.0139C25.5924 17.2239 25.3924 17.3739 25.1624 17.4139L21.6624 17.9539C20.5024 18.1339 19.5524 18.9339 19.1724 20.0539L19.1524 20.0439ZM21.0524 20.6839C21.1924 20.2739 21.5224 19.9939 21.9424 19.9239L25.4424 19.3839C26.3324 19.2439 27.0924 18.6739 27.4824 17.8539L28.9724 14.6539C29.1624 14.2439 29.5424 14.0039 29.9924 14.0039C30.4424 14.0039 30.8224 14.2439 31.0124 14.6539L32.5024 17.8439C32.8824 18.6639 33.6424 19.2339 34.5424 19.3739L38.0424 19.9139C38.4624 19.9839 38.8024 20.2639 38.9424 20.6739C39.0824 21.0839 38.9824 21.5139 38.6824 21.8239L36.0124 24.5739C35.4224 25.1839 35.1524 26.0539 35.2824 26.8939L35.8924 30.6739C35.9624 31.1139 35.7924 31.5339 35.4224 31.7839C35.0624 32.0339 34.6224 32.0539 34.2324 31.8439L31.3024 30.2139C30.8924 29.9839 30.4424 29.8739 29.9924 29.8739C29.5424 29.8739 29.0924 29.9839 28.6824 30.2139L25.7524 31.8439C25.3724 32.0539 24.9224 32.0339 24.5624 31.7839C24.2024 31.5239 24.0224 31.1139 24.0924 30.6739L24.7024 26.8939C24.8424 26.0539 24.5624 25.1839 23.9724 24.5739L21.3024 21.8239C21.0024 21.5139 20.9024 21.0839 21.0424 20.6739L21.0524 20.6839Z" fill="white"/>
</svg>
